<svg xmlns="http://www.w3.org/2000/svg" width="48.001" height="48.001" viewBox="0 0 48.001 48.001">
  <path id="Exclusion_3" data-name="Exclusion 3" d="M-838,682h-32a8.009,8.009,0,0,1-8-8V642a8.009,8.009,0,0,1,8-8h32a8.009,8.009,0,0,1,8,8v32A8.009,8.009,0,0,1-838,682Zm-16-12.966a2.252,2.252,0,0,0-2.25,2.249v2.46A2.254,2.254,0,0,0-854.007,676H-854a2.253,2.253,0,0,0,2.249-2.242V671.3a2.252,2.252,0,0,0-2.25-2.249v-.015Zm7.98-12.687a2.252,2.252,0,0,0-2.25,2.249v7.994a2.252,2.252,0,0,0,2.25,2.249,2.252,2.252,0,0,0,2.25-2.249V658.6A2.252,2.252,0,0,0-846.02,656.347Zm-15.961,5.534a2.252,2.252,0,0,0-2.25,2.249v2.444a2.253,2.253,0,0,0,2.25,2.25,2.253,2.253,0,0,0,2.25-2.25v-2.429a2.253,2.253,0,0,0-2.25-2.25v-.014Zm7.98-12.687a2.252,2.252,0,0,0-2.25,2.249v13.092a2.253,2.253,0,0,0,2.25,2.25,2.253,2.253,0,0,0,2.25-2.25V651.458a2.253,2.253,0,0,0-2.25-2.25v-.014Zm15.75,5.323a2.253,2.253,0,0,0-2.25,2.25v2.444a2.252,2.252,0,0,0,2.25,2.249,2.252,2.252,0,0,0,2.25-2.249v-2.444A2.253,2.253,0,0,0-838.25,654.517Zm-31.5,0a2.253,2.253,0,0,0-2.25,2.25v2.444a2.252,2.252,0,0,0,2.25,2.249,2.252,2.252,0,0,0,2.25-2.249v-2.444A2.253,2.253,0,0,0-869.75,654.517Zm7.77-7.378v.014h0a2.251,2.251,0,0,0-2.247,2.249v8.038a2.253,2.253,0,0,0,2.25,2.25,2.253,2.253,0,0,0,2.25-2.25v-8.053A2.252,2.252,0,0,0-861.98,647.139Zm15.961.014a2.253,2.253,0,0,0-2.25,2.25v2.46a2.252,2.252,0,0,0,2.25,2.249,2.252,2.252,0,0,0,2.25-2.249V649.4A2.253,2.253,0,0,0-846.02,647.153ZM-854,640a2.253,2.253,0,0,0-2.25,2.25v2.444a2.252,2.252,0,0,0,2.25,2.249,2.252,2.252,0,0,0,2.25-2.249V642.25A2.253,2.253,0,0,0-854,640Z" transform="translate(878 -634)" fill="#88644d"/>
</svg>
