<svg xmlns="http://www.w3.org/2000/svg" width="48.001" height="48.001" viewBox="0 0 48.001 48.001">
  <path id="Exclusion_2" data-name="Exclusion 2" d="M-838,682h-32a8.009,8.009,0,0,1-8-8V642a8.009,8.009,0,0,1,8-8h32a8.009,8.009,0,0,1,8,8v32A8.009,8.009,0,0,1-838,682Zm-16-41c-4.538,0-5.15.02-7.008.1a12.61,12.61,0,0,0-4.127.79,8.321,8.321,0,0,0-3.012,1.96,8.292,8.292,0,0,0-1.96,3.012,12.564,12.564,0,0,0-.79,4.127c-.085,1.8-.1,2.339-.1,7.008,0,4.538.02,5.15.1,7.008a12.612,12.612,0,0,0,.79,4.126,8.337,8.337,0,0,0,1.96,3.012,8.3,8.3,0,0,0,3.012,1.96,12.655,12.655,0,0,0,4.127.791c1.8.084,2.342.1,7.008.1,4.706,0,5.24-.024,7.008-.1a12.681,12.681,0,0,0,4.127-.791,8.332,8.332,0,0,0,3.012-1.96,8.3,8.3,0,0,0,1.96-3.012,12.634,12.634,0,0,0,.791-4.126c.084-1.8.1-2.343.1-7.008,0-4.707-.024-5.24-.1-7.008a12.662,12.662,0,0,0-.791-4.127,8.325,8.325,0,0,0-1.96-3.012,8.278,8.278,0,0,0-3.012-1.96,12.566,12.566,0,0,0-4.127-.79C-848.787,641.018-849.33,641-854,641Zm-.042,30.938c-4.614,0-5.094-.022-6.883-.105a9.671,9.671,0,0,1-3.168-.6,5.253,5.253,0,0,1-1.954-1.273,5.193,5.193,0,0,1-1.274-1.956,9.627,9.627,0,0,1-.6-3.166l0-.128c-.06-1.687-.082-2.318-.082-6.735s.022-5.047.082-6.749l0-.137a9.64,9.64,0,0,1,.6-3.165,5.056,5.056,0,0,1,1.274-1.956,5.044,5.044,0,0,1,1.954-1.273,9.406,9.406,0,0,1,3.146-.6l.1,0c1.738-.061,2.323-.081,6.781-.081l.064.042h.015c4.548,0,5.083.023,6.854.1a9.35,9.35,0,0,1,3.158.588,5.289,5.289,0,0,1,1.958,1.27,5.257,5.257,0,0,1,1.27,1.956,9.419,9.419,0,0,1,.585,3.155c.082,1.83.1,2.373.1,6.871,0,4.446-.02,5.046-.105,6.871a9.568,9.568,0,0,1-.6,3.155,5.43,5.43,0,0,1-1.273,1.957,5.288,5.288,0,0,1-1.956,1.27,9.5,9.5,0,0,1-3.166.585C-849,671.92-849.548,671.937-854.042,671.937Zm.042-22.667A8.739,8.739,0,0,0-862.729,658,8.739,8.739,0,0,0-854,666.73a8.74,8.74,0,0,0,8.73-8.73A8.739,8.739,0,0,0-854,649.271Zm9.076-2.383a2.042,2.042,0,0,0-2.04,2.038,2.043,2.043,0,0,0,2.04,2.04,2.042,2.042,0,0,0,2.039-2.04,2.04,2.04,0,0,0-2.036-2.038ZM-854,663.666A5.673,5.673,0,0,1-859.667,658,5.673,5.673,0,0,1-854,652.333,5.673,5.673,0,0,1-848.334,658,5.673,5.673,0,0,1-854,663.666Z" transform="translate(878 -634)" fill="#88644d"/>
</svg>
