<svg xmlns="http://www.w3.org/2000/svg" width="48.001" height="48.001" viewBox="0 0 48.001 48.001">
  <path id="Exclusion_6" data-name="Exclusion 6" d="M-838,682h-32a8.009,8.009,0,0,1-8-8V642a8.009,8.009,0,0,1,8-8h32a8.009,8.009,0,0,1,8,8v32A8.009,8.009,0,0,1-838,682Zm-5.167-40c-.041,0-.083,0-.125,0-.182,0-1.157.183-7.5,1.373l-8.841,1.657a2.136,2.136,0,0,0-.942.387,1.392,1.392,0,0,0-.5.907c-.089.354-.065,2.887-.035,6.095v.006c.049,5.229.116,12.389-.331,12.9a1.754,1.754,0,0,1-1.1.52l-.393.069-.065.011c-2.3.4-3.821.665-4.942,1.734a3.444,3.444,0,0,0-.91,3.517,3.716,3.716,0,0,0,2.956,2.572,4.834,4.834,0,0,0,.865.068,8.284,8.284,0,0,0,3.593-.8,4.088,4.088,0,0,0,2.124-2.777l.018-.08c.175-.75.175-.75.165-7.716v-.066c0-2.164-.007-5.127-.007-8.979,0-.824.247-1.023.942-1.174l.059-.011c2.079-.389,12.475-2.333,13-2.422a2.379,2.379,0,0,1,.409-.04c.544,0,.787.279.787.9,0,2.676.008,4.721.014,6.215.019,4.875.019,4.875-.316,5.252l-.007.008a1.763,1.763,0,0,1-1.1.521l-.444.077h-.006c-2.3.4-3.827.665-4.95,1.735a3.528,3.528,0,0,0-1.1,2.671,3.5,3.5,0,0,0,1.291,2.56,4.075,4.075,0,0,0,2.693.922,10.077,10.077,0,0,0,1.842-.2,4.44,4.44,0,0,0,3.874-3.375c.008-.036.016-.068.023-.1.131-.536.131-.536.118-10.2,0-3.008-.011-7.553-.014-13.508a1.324,1.324,0,0,0-.3-.911A1.11,1.11,0,0,0-843.167,642Z" transform="translate(878 -634)" fill="#88644d"/>
</svg>
