<svg xmlns="http://www.w3.org/2000/svg" width="48.001" height="48.001" viewBox="0 0 48.001 48.001">
  <path id="Exclusion_1" data-name="Exclusion 1" d="M-838,682h-32a8.009,8.009,0,0,1-8-8V642a8.009,8.009,0,0,1,8-8h32a8.009,8.009,0,0,1,8,8v32A8.009,8.009,0,0,1-838,682Zm-14.324-29.894h-6c.036.607.054,2.5.054,5.629s-.018,7.6-.054,13.265h6v-10.55a4.268,4.268,0,0,1,.216-1.527,4.119,4.119,0,0,1,1.149-1.626,2.865,2.865,0,0,1,1.932-.665,2.61,2.61,0,0,1,2.27,1.068,5.575,5.575,0,0,1,.757,3.2V671h6V660.168c0-2.778-.637-4.914-1.892-6.349a6.345,6.345,0,0,0-5-2.164,6.1,6.1,0,0,0-5.432,3.139Zm-15.324,0V671h6V652.107Zm3.054-9.107a3.392,3.392,0,0,0-2.459.92,3.127,3.127,0,0,0-.946,2.333,3.225,3.225,0,0,0,.919,2.348,3.238,3.238,0,0,0,2.4.933h.027a3.4,3.4,0,0,0,2.487-.933,3.06,3.06,0,0,0,.919-2.263,3.279,3.279,0,0,0-.946-2.433A3.3,3.3,0,0,0-864.595,643Z" transform="translate(878 -634)" fill="#88644d"/>
</svg>
