<svg xmlns="http://www.w3.org/2000/svg" width="48" height="48.001" viewBox="0 0 48 48.001">
  <path id="Exclusion_7" data-name="Exclusion 7" d="M-808,744h-32a8.009,8.009,0,0,1-8-8V704a8.009,8.009,0,0,1,8-8h32a8.009,8.009,0,0,1,8,8v32A8.009,8.009,0,0,1-808,744Zm-29.6-38a3.4,3.4,0,0,0-3.383,3.4L-841,729.8a3.4,3.4,0,0,0,3.4,3.4h27.2a3.4,3.4,0,0,0,3.4-3.4V709.4a3.4,3.4,0,0,0-3.4-3.4Zm27.2,23.8h-27.2v-17c.124.084,12.576,8.5,13.6,8.5s13.475-8.415,13.6-8.5v17ZM-824,717.9h0l-13.6-8.5h27.2l-13.6,8.5Z" transform="translate(848 -696)" fill="#88644d"/>
</svg>
