<svg xmlns="http://www.w3.org/2000/svg" width="48.001" height="48.001" viewBox="0 0 48.001 48.001">
  <path id="Exclusion_5" data-name="Exclusion 5" d="M-838,682h-32a8.009,8.009,0,0,1-8-8V642a8.009,8.009,0,0,1,8-8h32a8.009,8.009,0,0,1,8,8v32A8.009,8.009,0,0,1-838,682Zm4.762-13.188a23.5,23.5,0,0,1-4.255,5.8,23.509,23.509,0,0,1-5.816,4.261,23.406,23.406,0,0,0,5.819-4.259,23.4,23.4,0,0,0,4.253-5.807h0Zm-41.755-.018h0a23.52,23.52,0,0,0,4.266,5.824,23.483,23.483,0,0,0,5.787,4.245,23.61,23.61,0,0,1-5.785-4.248A23.605,23.605,0,0,1-874.993,668.794Zm17.324-3.2a23.071,23.071,0,0,1,12.089,3.138,1.814,1.814,0,0,0,1.014.342,1.435,1.435,0,0,0,1.441-1.46,1.593,1.593,0,0,0-.92-1.564,26.089,26.089,0,0,0-13.594-3.518,41.315,41.315,0,0,0-8.865,1.036,1.5,1.5,0,0,0-1.289,1.592,1.483,1.483,0,0,0,1.5,1.5,4.182,4.182,0,0,0,.873-.179h.005l.249-.067A37.581,37.581,0,0,1-857.669,665.6Zm-.361-6.926a29.947,29.947,0,0,1,14.848,3.792l.047.026.075.04a2.074,2.074,0,0,0,1.043.332,1.834,1.834,0,0,0,1.838-1.848,1.978,1.978,0,0,0-1.071-1.867,33.214,33.214,0,0,0-16.773-4.313,32.043,32.043,0,0,0-9.267,1.29,1.856,1.856,0,0,0-1.47,1.961,1.841,1.841,0,0,0,1.839,1.839,2.49,2.49,0,0,0,.8-.151l.04-.012c.09-.027.181-.055.285-.084A29.677,29.677,0,0,1-858.03,658.672Zm.405-7.351c6.7,0,13.179,1.477,17.323,3.95a2.191,2.191,0,0,0,1.222.37,2.206,2.206,0,0,0,2.2-2.209,2.217,2.217,0,0,0-1.222-2.141c-4.936-2.879-12.031-4.53-19.465-4.53A39.842,39.842,0,0,0-868.7,648.2a2.231,2.231,0,0,0-1.649,2.264,2.2,2.2,0,0,0,2.208,2.237,3.722,3.722,0,0,0,1.045-.194l.178-.051A35.305,35.305,0,0,1-857.625,651.321Zm-7.278-14.2h0a23.462,23.462,0,0,0-5.825,4.264A23.484,23.484,0,0,0-875,647.221a23.6,23.6,0,0,1,4.274-5.837,23.582,23.582,0,0,1,5.823-4.267Zm21.594.007h0a23.451,23.451,0,0,1,5.816,4.26,23.488,23.488,0,0,1,4.254,5.8,23.41,23.41,0,0,0-4.252-5.806A23.4,23.4,0,0,0-843.309,637.123Z" transform="translate(878 -634)" fill="#88644d"/>
</svg>
